<svg id="Layer_1" data-name="Layer 1" xmlns="http://www.w3.org/2000/svg" viewBox="0 0 950 950"><path d="M987,512q0,19.72-1.6,39-5.58-7.21-16.16-9.11-16.1-2.88-38.31,2.3a344.45,344.45,0,0,0-48.06,15.46q-25.8,10.26-49.79,21.81t-43.81,21.35q-19.86,9.85-30,13.55,2-10.5,6.57-38.28t10.41-63.41q5.75-35.6,12.19-74.82t11.18-73q4.8-33.84,7.82-58.5t2-30.17a51.55,51.55,0,0,0-7.05-18.42,39,39,0,0,0-13.12-13.25A40.81,40.81,0,0,0,772.11,241a35.34,35.34,0,0,0-19.29,4q-15.27,7.13-29.43,34.64t-26.82,65.65q-12.63,38.16-23.16,82.87t-17.79,86.23q-7.27,41.61-10.85,75.22t-2.5,50.59q1.74,20.61,10.82,36.16a70.86,70.86,0,0,0,23,24.5,69.19,69.19,0,0,0,32,10.55q18.06,1.58,37.61-6.3a111.08,111.08,0,0,0,12.95-5.78q6.38-3.35,12.84-6.39a537.21,537.21,0,0,1,49.82-21.49l56.53-21.38q28.25-10.71,54.1-22.55T975,601.84c1.48-1.19,2.85-2.4,4.15-3.61C938.62,819.35,744.88,987,512,987,290.9,987,105.08,835.93,52.12,631.39q17.07,17.13,53.06,22.29,9.15,1.58,25.43.27t34.6-3.55q18.31-2.24,35-4.6t27.21-4.15Q257.1,637,287.81,631t61.81-11.18a618.24,618.24,0,0,1,61.89-7.11,387.12,387.12,0,0,1,61.1,1,175.82,175.82,0,0,1,24.79,3.88q10.61,2.58,13.78,6.15t-2.59,8.71q-5.76,5.13-23.78,10.85a452.74,452.74,0,0,1-46.14,11.94q-23.28,4.72-45.95,9.37-16,2.83-26.48-2.62T346,651.26a60,60,0,0,0-21.78-6.63q-12-1.35-30.39,9.48-21.24,12.64-27.61,30.58a52.11,52.11,0,0,0,0,35.85q6.31,17.88,24.3,33.53t45.69,23.37q27.73,7.83,64.39,5.15T481,762a241.24,241.24,0,0,0,57.18-33.88,248.84,248.84,0,0,0,46.45-47.34A107.29,107.29,0,0,0,599,654.18q10.32-27.84,3.35-47.25t-24.82-32.74q-17.81-13.35-43.18-20.61A356.29,356.29,0,0,0,482,542.82a431.4,431.4,0,0,0-93.32-2L337.88,546q-25.25,2.55-50.72,5.77-42.89,5-69.89,6.6t-32.42-4.11q-5.44-5.67,12.39-21.54t64.62-45.65Q291,468.61,322.6,451.94a479.9,479.9,0,0,1,61.21-27.31q29.55-10.58,54.65-12.16t40.65,10.92q12.4,9.24,24.85,9.58t22.79-12.91q13.8-18.29,17.66-37.71t-1.31-36.26q-5.22-16.84-20.05-29.14t-38.44-16.4q-33.33-5.54-70.48-.27a416.12,416.12,0,0,0-75.43,18.37,575,575,0,0,0-76.15,32.48,808.77,808.77,0,0,0-72.58,42A712.94,712.94,0,0,0,125.9,440a615.06,615.06,0,0,0-50.84,46.4A170.6,170.6,0,0,0,42.64,534.6q-2.51,5.58-4.47,11.12Q37,529,37,512C37,249.67,249.67,37,512,37S987,249.67,987,512Z" transform="translate(-37 -37)" style="fill:#fff"/></svg>